
        <svg xmlns="http://www.w3.org/2000/svg" xmlns:xlink="http://www.w3.org/1999/xlink" version="1.1" width="3162.2083096186684" height="875.2651730739381" viewBox="0 0 3162.2083096186684 875.2651730739381">
			
			<g transform="scale(8.11041548093341) translate(10, 10)">
				<defs id="SvgjsDefs1024"/><g id="SvgjsG1025" featureKey="symbolFeature-0" transform="matrix(0.8373205741626795,0,0,0.8373205741626795,0,0)" fill="#fff">    <title xmlns="http://www.w3.org/2000/svg">T Symbol-06</title>    <g xmlns="http://www.w3.org/2000/svg" id="Page-1" stroke-width="1" fill-rule="evenodd">        <g id="Artboard" transform="translate(-4440.000000, -1015.000000)" fill-rule="nonzero">            <g id="T-Symbol-06" transform="translate(4440.000000, 1015.000000)">                <polygon id="Path" points="0 41.7660819 30.8173015 57.539961 30.8173015 93.6939571 51 104 51 67.8460039 51 45.079922 0 19" stroke="none"/>                <polygon id="Path" points="59 45.079922 59 67.8460039 59 104 79.1826985 93.6939571 79.1826985 57.539961 110 41.7660819 110 19" stroke="none"/>                <polygon id="Path" points="105 11.9550562 85.6740331 0 54.0165746 14.4511668 22.3259669 0 3 11.9550562 54.0165746 38" stroke="none"/>            </g>        </g>    </g></g><g id="SvgjsG1026" featureKey="nameFeature-0" transform="matrix(2.0953423221109753,0,0,2.0953423221109753,110.74279380742375,-11.401312059633796)" fill="#fff"><path d="M14.96 40 l-6.2 0 l0 -21.72 l-8.16 0 l0 -5.68 l22.52 0 l0 5.68 l-8.16 0 l0 21.72 z M30.44 40 l-5.6 0 l0 -20.52 l5.56 0 l0 2.8 c1.36 -1.88 3.4 -3.08 5.96 -3.08 l0 5.6 c-4.08 0 -5.92 2.28 -5.92 5.84 l0 9.36 z M47.44 24.32 c-3.04 0 -5.4 2.48 -5.4 5.52 c0 3.08 2.36 5.52 5.4 5.52 c3.2 0 5.6 -2.44 5.6 -5.52 c0 -3.04 -2.48 -5.52 -5.6 -5.52 z M52.96 40 l0 -1.52 c-1.44 1.12 -3.68 1.8 -6 1.8 c-5.6 0 -10.36 -4.52 -10.36 -10.44 s4.76 -10.56 10.36 -10.56 c2.32 0 4.56 0.72 6 1.84 l0 -1.64 l5.56 0 l0 20.52 l-5.56 0 z M76.48 32.48 l4.32 2.76 c-1.96 3.16 -5.08 5.24 -9.56 5.24 c-6.36 0 -10.84 -4.72 -10.84 -10.68 s4.48 -10.72 10.84 -10.72 c4.52 0 7.68 2.16 9.6 5.36 l-4.36 2.72 c-1.04 -1.72 -2.52 -3 -5.04 -3 c-3.24 0 -5.44 2.28 -5.44 5.64 s2.2 5.68 5.44 5.68 c2.52 0 4 -1.28 5.04 -3 z M90.68 19.48 l5.04 0 l0 4.96 l-5.04 0 l0 8.24 c0 1.84 0.84 2.56 2.72 2.56 l2.32 0 l0 4.76 l-2.72 0 c-5.44 0 -7.88 -2.44 -7.88 -7.04 l0 -8.52 l-2.96 0 l0 -4.96 l2.96 0 l0 -5.28 l5.56 0 l0 5.28 z M103.36 17.72 l-5.56 0 l0 -5.12 l5.56 0 l0 5.12 z M103.36 40 l-5.56 0 l0 -20.52 l5.56 0 l0 20.52 z M105.28 33.56 l5.64 0 c0 1.24 0.84 2.76 3.8 2.8 c2.08 0 3.04 -0.96 3.04 -1.92 c0 -3.6 -12.12 0.08 -12.12 -8.56 c0 -3.72 3.28 -6.64 8.48 -6.64 s8.48 2.68 8.8 6.8 l-5.56 0 c-0.08 -1.48 -0.68 -2.6 -3.16 -2.6 c-1.6 0 -2.92 0.52 -2.92 1.8 c0 3.68 12.4 0.44 12.4 8.24 c0 4.88 -4.08 6.92 -9.24 6.92 c-5.6 0 -9.04 -2.92 -9.16 -6.84 z"/></g>
			</g>
		</svg>
	